<svg xmlns="http://www.w3.org/2000/svg" width="46" height="46" fill="none" viewBox="0 0 46 46">
  <path fill="#44A3DD" d="M0 0h46v46H0V0Z"/>
  <path fill="#BEE5F7" d="M8.985 16.531h9.47c.711 0 1.365.39 1.705 1.014l8.432 15.517H17.309a1.94 1.94 0 0 1-1.705-1.014L8.037 18.124a1.078 1.078 0 0 1 .948-1.593Z"/>
  <path fill="#fff" d="M37.08 16.531a1.078 1.078 0 0 1 .973 1.545l-.025.048-7.566 13.924a1.94 1.94 0 0 1-1.637 1.013l-.068.002H17.309l-.07-.002a1.94 1.94 0 0 1-.989-.313c.146.084.31.138.487.154.019.002.17.016.337-.03.071-.019.333-.08.611-.34.083-.077.2-.244.348-.5l7.873-14.487a1.94 1.94 0 0 1 1.636-1.013h9.539Z"/>
</svg>
